<svg xmlns="http://www.w3.org/2000/svg" width="1200" height="760" viewBox="0 0 1200 760" role="img" aria-labelledby="title desc">
  <title id="title">Life Index GUI search results demo screenshot</title>
  <desc id="desc">Sanitized demo screenshot showing fictional search results in Life Index GUI.</desc>
  <defs>
    <radialGradient id="bg" cx="58%" cy="12%" r="88%">
      <stop offset="0" stop-color="#213852"/>
      <stop offset="0.52" stop-color="#101724"/>
      <stop offset="1" stop-color="#070a11"/>
    </radialGradient>
    <linearGradient id="line" x1="0" x2="1">
      <stop offset="0" stop-color="#8bd4ff"/>
      <stop offset="1" stop-color="#f3d48b"/>
    </linearGradient>
  </defs>
  <rect width="1200" height="760" fill="url(#bg)"/>
  <path d="M78 214 C260 102 444 112 590 248 S878 404 1116 214" fill="none" stroke="url(#line)" stroke-width="1.4" opacity="0.38"/>
  <path d="M86 610 C304 466 510 504 690 628 S952 704 1110 552" fill="none" stroke="#8bd4ff" stroke-width="1" opacity="0.22"/>
  <rect x="64" y="52" width="1072" height="656" rx="18" fill="#0c111b" opacity="0.90" stroke="rgba(255,255,255,0.10)"/>
  <g transform="translate(104 92)" font-family="Inter, Arial, sans-serif">
    <text x="0" y="0" fill="#f6f0df" font-size="26" letter-spacing="4">RECALL</text>
    <text x="0" y="30" fill="#91a4bf" font-size="14">Search across the life archive</text>
    <rect x="0" y="64" width="990" height="62" rx="31" fill="rgba(255,255,255,0.075)" stroke="rgba(255,255,255,0.13)"/>
    <circle cx="36" cy="95" r="10" fill="none" stroke="#8bd4ff" stroke-width="2"/>
    <path d="M44 103 L56 115" stroke="#8bd4ff" stroke-width="2" stroke-linecap="round"/>
    <text x="74" y="101" fill="#eef4ff" font-size="20">where do my strongest focus blocks appear?</text>
    <rect x="828" y="76" width="128" height="38" rx="19" fill="rgba(243,212,139,0.15)" stroke="rgba(243,212,139,0.35)"/>
    <text x="864" y="100" fill="#f3d48b" font-size="13">SEARCH</text>
  </g>
  <g transform="translate(104 250)" font-family="Inter, Arial, sans-serif">
    <text x="0" y="0" fill="#f3d48b" font-size="14" letter-spacing="2">3 RESULTS · DEMO DATA</text>
    <g transform="translate(0 38)">
      <rect width="990" height="126" rx="12" fill="rgba(255,255,255,0.07)" stroke="rgba(255,255,255,0.10)"/>
      <rect x="24" y="24" width="78" height="78" rx="10" fill="rgba(139,212,255,0.11)" stroke="rgba(139,212,255,0.22)"/>
      <text x="42" y="70" fill="#8bd4ff" font-size="28">08</text>
      <text x="128" y="42" fill="#f6f0df" font-size="21">Focus Review</text>
      <text x="128" y="68" fill="#91a4bf" font-size="13">2026-06-08 · Kitchen Table · review, planning, energy</text>
      <text x="128" y="98" fill="#c5d0e0" font-size="15">The week worked when I kept the plan visible and reduced context switches after lunch.</text>
    </g>
    <g transform="translate(0 186)">
      <rect width="990" height="126" rx="12" fill="rgba(255,255,255,0.055)" stroke="rgba(255,255,255,0.09)"/>
      <rect x="24" y="24" width="78" height="78" rx="10" fill="rgba(243,212,139,0.10)" stroke="rgba(243,212,139,0.20)"/>
      <text x="42" y="70" fill="#f3d48b" font-size="28">01</text>
      <text x="128" y="42" fill="#f6f0df" font-size="21">Morning Reset</text>
      <text x="128" y="68" fill="#91a4bf" font-size="13">2026-06-01 · Harbor Studio · reflection, routine, studio</text>
      <text x="128" y="98" fill="#c5d0e0" font-size="15">The small reset helped me write the project notes with a steadier voice.</text>
    </g>
    <g transform="translate(0 334)">
      <rect width="990" height="126" rx="12" fill="rgba(255,255,255,0.055)" stroke="rgba(255,255,255,0.09)"/>
      <rect x="24" y="24" width="78" height="78" rx="10" fill="rgba(128,226,180,0.10)" stroke="rgba(128,226,180,0.20)"/>
      <text x="42" y="70" fill="#80e2b4" font-size="28">04</text>
      <text x="128" y="42" fill="#f6f0df" font-size="21">Field Walk Notes</text>
      <text x="128" y="68" fill="#91a4bf" font-size="13">2026-06-04 · Riverfront Path · walk, ideas, mobility</text>
      <text x="128" y="98" fill="#c5d0e0" font-size="15">The best entries were short: one observation, one photo cue, one next question.</text>
    </g>
  </g>
</svg>
